# File produced by Open Asset Import Library (http://www.assimp.sf.net)
# (assimp v3.1.236340372)

mtllib Piso.mtl

# vertex positions
v -6.502469 1.133228 5.512550
v -6.641112 -1.470349 5.496589
v 6.629386 -2.016367 5.276882
v 6.768031 0.587214 5.292843
v -6.689852 1.016241 -5.293368
v 6.580647 0.470226 -5.513075
v -6.828496 -1.587331 -5.309330
v 6.442004 -2.133349 -5.529037

# UV coordinates
vt 0.375000 0.250000
vt 0.375000 0.000000
vt 0.625000 0.000000
vt 0.625000 0.250000
vt 0.375000 0.500000
vt 0.625000 0.500000
vt 0.375000 0.750000
vt 0.625000 0.750000
vt 0.375000 1.000000
vt 0.625000 1.000000
vt 0.875000 0.000000
vt 0.875000 0.250000
vt 0.125000 0.250000
vt 0.125000 0.000000

# vertex normals
vn 0.016266 -0.006996 0.999843
vn 0.016266 -0.006996 0.999843
vn 0.040917 0.999096 -0.011526
vn -0.016266 0.006996 -0.999843
vn -0.016266 0.006996 -0.999843
vn -0.040917 -0.999096 0.011525
vn -0.040917 -0.999096 0.011525
vn 0.998451 -0.053066 -0.016739
vn -0.998451 0.053066 0.016739
vn -0.998451 0.053066 0.016739

# Mesh
g Piso_Low
usemtl lambert1
f 1/1/1 2/2/2 3/3/1
f 3/3/1 4/4/1 1/1/1
f 5/5/3 1/1/3 4/4/3
f 4/4/3 6/6/3 5/5/3
f 7/7/4 5/5/4 6/6/5
f 6/6/5 8/8/5 7/7/4
f 2/9/6 7/7/7 8/8/6
f 8/8/6 3/10/7 2/9/6
f 4/4/8 3/3/8 8/11/8
f 8/11/8 6/12/8 4/4/8
f 5/13/9 7/14/9 2/2/10
f 2/2/10 1/1/10 5/13/9
